<svg width="234" height="234" viewBox="0 0 234 234" fill="none" xmlns="http://www.w3.org/2000/svg">
<path d="M116.667 0C52.337 0 0 52.3371 0 116.667C0 180.996 52.337 233.333 116.667 233.333C180.996 233.333 233.333 180.996 233.333 116.667C233.333 52.3371 180.996 0 116.667 0ZM116.667 17.5C135.168 17.5 152.403 22.6319 167.207 31.4111C166.65 31.9912 166.195 32.6917 165.908 33.5075L164.746 36.8115C163.9 39.209 164.715 41.8799 166.751 43.4082L168.779 44.9235C171.888 47.2568 171.888 51.9212 168.779 54.2546L166.216 56.18C164.448 57.5042 162.087 57.7127 160.109 56.7269L152.897 53.1152C152.086 52.7069 151.192 52.5 150.288 52.5H135.955C134.252 52.5 132.638 53.2502 131.523 54.5394L118.057 70.2279C116.645 71.8729 116.272 74.1796 117.077 76.1979L118.307 79.2855C119.865 83.1763 124.891 84.2084 127.855 81.2451C127.855 81.2451 131.614 79.5087 132.868 73.8737C133.387 71.5462 135.598 70 137.983 70H143.498C145.003 70 146.44 70.5795 147.52 71.6178L150.402 74.3636C152.77 76.6269 152.82 80.399 150.505 82.7148L145.993 87.2152C145.456 87.7518 144.819 88.1881 144.113 88.4798L126.169 95.9424C125.673 96.1465 125.199 96.4188 124.779 96.7513L108.589 109.569C107.556 110.385 106.278 110.833 104.966 110.833H102.083C97.2533 110.833 93.3333 114.753 93.3333 119.583C93.3333 124.413 97.2533 128.333 102.083 128.333H103.439C105.767 128.333 108.052 127.695 110.036 126.476L121.896 119.23C124.317 117.748 127.452 118.229 129.325 120.369L134.543 126.34C135.651 127.605 137.255 128.333 138.94 128.333H140C143.22 128.333 145.833 125.72 145.833 122.5V118.968C145.833 117.492 146.391 116.065 147.394 114.992L154.059 107.837C154.497 107.364 155.009 106.967 155.575 106.663L166.41 100.853C170.3 98.7704 175 101.593 175 106.003V110.833C175 114.053 172.387 116.667 169.167 116.667H163.333C160.113 116.667 157.5 119.28 157.5 122.5C157.5 125.72 160.113 128.333 163.333 128.333H171.901C173.838 128.333 175.647 129.298 176.732 130.908L189.367 149.604C191.274 152.428 195.183 153.021 197.843 150.892L201.979 147.588C203.362 146.48 204.167 144.804 204.167 143.031V140C204.167 136.78 201.553 134.167 198.333 134.167C195.113 134.167 192.5 131.553 192.5 128.333C192.5 125.113 195.113 122.5 198.333 122.5H200.43C200.972 122.5 201.511 122.424 202.036 122.284L215.742 118.364C215.339 142.263 206.561 164.049 192.17 180.947C192.376 180.314 192.5 179.65 192.5 178.976V175.501C192.5 172.001 189.665 169.167 186.165 169.167C184.03 169.167 182.046 168.092 180.868 166.307L168.05 143.372C166.294 140.683 162.803 139.744 159.927 141.173L146.46 148.556C144.967 149.303 143.227 149.423 141.641 148.898L119.868 141.014C115.971 139.719 111.762 139.719 107.871 141.014L88.081 148.898C86.4885 149.423 85.1649 150.566 84.4124 152.065L77.1322 166.58C76.3038 168.225 76.2385 170.135 76.9385 171.833L83.8769 188.581C84.8569 190.949 87.1608 192.5 89.7217 192.5H101.833C103.828 192.5 105.707 191.557 106.903 189.971L108.691 187.59C111.223 184.212 116.288 184.212 118.82 187.59L121.235 190.814C122.058 191.905 122.5 193.237 122.5 194.608V215.537C120.558 215.65 118.637 215.833 116.667 215.833C61.7947 215.833 17.5 171.539 17.5 116.667C17.5 108.858 18.4921 101.3 20.1888 94.0169L29.4515 88.7077C30.2332 88.2585 31.1052 88.0355 32.0036 88.0355H35.6836C38.5303 88.0355 40.8447 85.721 40.8447 82.8743V64.554C40.8447 61.7074 43.1478 59.3929 45.9945 59.3929C48.2228 59.3929 50.1994 57.9671 50.8936 55.8496L60.1676 35.1595C64.8778 31.8924 69.9027 29.0828 75.1611 26.6602L64.4971 49.9251C63.1262 54.061 66.2008 58.3333 70.5583 58.3333H83.6035C86.456 58.3333 89.1845 57.2071 91.2028 55.1888L103.69 42.7018C104.886 41.506 105.558 39.8876 105.558 38.1901V35.5469C105.558 32.0294 102.701 29.1667 99.1781 29.1667H96.5348C94.8432 29.1667 93.2134 29.8393 92.0117 31.0352L88.0583 35L87.9899 27.7881C87.9708 25.5732 86.8453 23.7554 85.2441 22.6383C95.1218 19.3502 105.667 17.5 116.667 17.5ZM99.1667 70C95.9467 70 93.3333 72.6133 93.3333 75.8333V81.6667C93.3333 84.8867 95.9467 87.5 99.1667 87.5C102.387 87.5 105 84.8867 105 81.6667V75.8333C105 72.6133 102.387 70 99.1667 70Z" fill="#2388FF"/>
</svg>
